<!DOCTYPE svg PUBLIC "-//W3C//DTD SVG 20010904//EN" "http://www.w3.org/TR/2001/REC-SVG-20010904/DTD/svg10.dtd">
<svg version="1.0" xmlns="http://www.w3.org/2000/svg" width="620px" height="260px" viewBox="0 0 3300 1500" preserveAspectRatio="xMidYMid meet">
<g id="layer101" fill="#4883a4" stroke="none">
 <path d="M0 750 l0 -750 1650 0 1650 0 0 750 0 750 -1650 0 -1650 0 0 -750z"/>
 </g>
<g id="layer102" fill="#ffffff" stroke="none">
 <path d="M0 750 l0 -750 1650 0 1650 0 0 750 0 750 -1650 0 -1650 0 0 -750z m2290 390 l0 -30 -675 0 -675 0 0 30 0 30 675 0 675 0 0 -30z m-1134 -285 l18 -55 78 0 77 0 16 55 c16 53 18 55 52 55 24 0 34 -4 30 -12 -2 -7 -35 -111 -73 -231 l-68 -218 -35 3 c-40 3 -23 -36 -134 316 l-45 142 33 0 c32 0 35 -3 51 -55z m511 38 c44 -21 73 -67 73 -117 0 -50 -44 -95 -125 -125 -71 -27 -95 -46 -95 -78 0 -45 32 -63 115 -63 l75 0 0 -30 0 -30 -80 0 c-123 0 -170 36 -170 130 0 56 34 88 128 124 82 32 100 53 83 99 -14 36 -46 47 -137 47 l-74 0 0 30 0 30 86 0 c60 0 97 -5 121 -17z m223 -83 l0 -100 60 0 c72 0 113 -19 140 -63 38 -61 18 -140 -43 -177 -27 -17 -51 -20 -154 -20 l-123 0 0 30 0 30 115 0 c110 0 117 1 140 25 14 13 25 33 25 45 0 12 -11 32 -25 45 -22 23 -32 25 -110 25 l-85 0 0 130 0 130 30 0 30 0 0 -100z m400 -520 l0 -30 -675 0 -675 0 0 30 0 30 675 0 675 0 0 -30z"/>
 <path d="M1217 663 c13 -43 27 -85 30 -93 3 -11 62 145 63 168 0 1 -27 2 -59 2 l-60 0 26 -77z"/>
 </g>

</svg>